<svg xmlns="http://www.w3.org/2000/svg" viewBox="0 0 608 340">
  <path fill="#ffffff" d="M0 0h608v340H0z"/>
  <path fill="#268AE2" d="M397.55 179.34c1.9 0 3.45 1.55 3.45 3.45v49.42l-.04 1.39c0 .44-.04.88-.07 1.32-.04.88-.2 1.74-.3 2.61-.28 1.73-.69 3.44-1.22 5.1a34.05 34.05 0 0 1-21.62 21.7 33.06 33.06 0 0 1-20.72.02 34.05 34.05 0 0 1-22.87-26.8c-.1-.9-.25-1.75-.3-2.63-.02-.44-.08-.88-.07-1.32l-.04-1.39V126.47l-.02-1.48-.04-1.54c0-1.02-.1-2.05-.18-3.07-.13-2.06-.4-4.1-.7-6.14a78.88 78.88 0 0 0-53.2-62.47 78.08 78.08 0 0 0-70.48 11.22 78.88 78.88 0 0 0-28.44 39.22 80.8 80.8 0 0 0-2.85 12.03c-.29 2.04-.57 4.08-.7 6.14-.08 1.02-.16 2.05-.18 3.07l-.04 1.54-.02 1.48v49.43a3.45 3.45 0 1 1-6.9 0v-49.43l.03-1.6.04-1.67a89.03 89.03 0 0 1 .95-10.03 85.76 85.76 0 0 1 34.06-55.77 85.48 85.48 0 0 1 36.86-15.34 84.9 84.9 0 0 1 63.61 15.38 85.76 85.76 0 0 1 34.1 55.74c.3 2.22.62 4.45.76 6.68.08 1.12.17 2.23.19 3.35l.04 1.68.03 1.6V232.2l.03 1.13c0 .35.03.7.06 1.05.03.7.16 1.39.23 2.08.23 1.36.55 2.7.97 4.03.43 1.32.96 2.61 1.6 3.85a24.15 24.15 0 0 0 2.2 3.59 29.67 29.67 0 0 0 2.76 3.24c1 1 2.09 1.91 3.23 2.75 1.13.84 2.33 1.58 3.6 2.22 1.23.65 2.51 1.18 3.84 1.6a26.22 26.22 0 0 0 20.25-1.61 24.76 24.76 0 0 0 3.59-2.2 30.38 30.38 0 0 0 3.23-2.76c1-1.01 1.91-2.1 2.75-3.24a24.15 24.15 0 0 0 2.2-3.6 24.66 24.66 0 0 0 1.6-3.84c.43-1.32.75-2.67.98-4.03.07-.7.2-1.38.22-2.08.04-.35.06-.7.07-1.05l.03-1.13V182.8c0-1.9 1.54-3.45 3.45-3.45z"/>
  <path fill="#E4E4E4" d="M431.53 180a3.44 3.44 0 0 0-3.44 3.45v49.37c-.02 3.2-.26 6.4-.74 9.56a61.56 61.56 0 0 1-41.46 48.7 60.56 60.56 0 0 1-54.83-8.75 61.56 61.56 0 0 1-24.44-39.95 67.03 67.03 0 0 1-.73-9.57v-44.2a3.44 3.44 0 1 1-6.89 0v44.2l.06 2.65c0 .89.09 1.78.16 2.66.1 1.79.36 3.56.6 5.33.56 3.52 1.4 7 2.49 10.4a68.45 68.45 0 0 0 54.05 46.3 67.4 67.4 0 0 0 31.7-2.52 68.45 68.45 0 0 0 46.12-54.18c.24-1.77.5-3.54.6-5.33.07-.88.15-1.77.16-2.66l.06-2.64v-49.37a3.45 3.45 0 0 0-3.47-3.45z"/>
  <path fill="#FCD748" d="M306 180.34v-53.1a57.73 57.73 0 0 0-.61-8.02 51.53 51.53 0 0 0-34.63-40.7 50.2 50.2 0 0 0-31.52 0 48.22 48.22 0 0 0-7.38 3.1 51.5 51.5 0 0 0-27.24 37.6c-.4 2.66-.6 5.33-.62 8.02v49.64a3.46 3.46 0 1 0 6.92 0v-49.64l.04-1.77c0-.58.06-1.16.1-1.73.06-1.16.24-2.3.4-3.45a44.58 44.58 0 0 1 29.96-35.17 43.35 43.35 0 0 1 33.55 2.67 44.6 44.6 0 0 1 23.58 32.5c.14 1.15.32 2.29.39 3.45.04.57.1 1.15.1 1.73l.04 1.77V189H306v-8.66z"/>
  <path fill="#F98C25" d="M302.5 191c1.93 0 3.5-1.35 3.5-3h-7c0 1.65 1.57 3 3.5 3z"/>
  <path fill="#FF7BAC" d="M360.12 275.56a44.44 44.44 0 0 1-13.02-4.28 44.4 44.4 0 0 1-23.5-32.38c-.15-1.14-.33-2.27-.4-3.43-.04-.57-.1-1.14-.1-1.72l-.04-1.76V126.25l-.06-2.64c0-.9-.09-1.78-.16-2.68-.1-1.78-.36-3.55-.6-5.32a68.56 68.56 0 0 0-56.54-56.76 67.7 67.7 0 0 0-50.68 12.26 68.52 68.52 0 0 0-24.73 34.08 70.28 70.28 0 0 0-2.48 10.42c-.24 1.77-.49 3.53-.6 5.32-.06.9-.14 1.79-.15 2.68l-.06 2.64v49.42a3.45 3.45 0 1 0 6.89 0v-49.42c.02-3.2.26-6.4.73-9.58.5-3.17 1.24-6.3 2.22-9.35a61.64 61.64 0 0 1 39.27-39.4 60.57 60.57 0 0 1 46.7 3.71 61.66 61.66 0 0 1 32.63 45.04c.48 3.18.73 6.38.74 9.58V232c.02 2.67.22 5.33.61 7.97a51.29 51.29 0 0 0 34.5 40.52c2.54.83 5.13 1.46 7.76 1.89 2.63.4 5.29.6 7.95.63v-6.9c-2.3-.02-4.6-.2-6.88-.54z"/>
  <path fill="#E4E4E4" d="M414.54 180a3.46 3.46 0 0 0-3.45 3.45v49.48l-.05 1.77c0 .57-.05 1.15-.1 1.72-.06 1.15-.24 2.3-.4 3.43a44.47 44.47 0 0 1-36.65 36.7 49.3 49.3 0 0 1-6.89.54 3.46 3.46 0 1 1 0 6.91c2.67-.02 5.34-.23 7.98-.63a51.4 51.4 0 0 0 40.54-34.68 53.15 53.15 0 0 0 1.87-7.77c.4-2.64.6-5.31.61-7.99v-49.48c0-1.9-1.55-3.45-3.46-3.45z"/>
  <path fill="#268AE2" d="M370 280.5c0-1.93-1.34-3.5-3-3.5v7c1.66 0 3-1.57 3-3.5z"/>
  <circle cx="397.5" cy="180.5" r="5.5" fill="#268AE2"/>
  <circle cx="302.5" cy="190.5" r="5.5" fill="#FCD748"/>
  <circle cx="397.5" cy="180.5" r="2.5" fill="#FFF"/>
  <circle cx="368.5" cy="280.5" r="5.5" fill="#FF7BAC"/>
  <circle cx="368.5" cy="280.5" r="2.5" fill="#FFF"/>
  <circle cx="302.5" cy="190.5" r="2.5" fill="#FFF"/>
</svg>
